<?xml version="1.0" encoding="UTF-8"?>
<!DOCTYPE svg PUBLIC "-//W3C//DTD SVG 1.1//EN" "http://www.w3.org/Graphics/SVG/1.1/DTD/svg11.dtd">
<!-- Creator: CorelDRAW X8 -->
<svg xmlns="http://www.w3.org/2000/svg" xml:space="preserve" width="120mm" height="50mm" version="1.1" style="shape-rendering:geometricPrecision; text-rendering:geometricPrecision; image-rendering:optimizeQuality; fill-rule:evenodd; clip-rule:evenodd"
viewBox="0 0 12000 5000"
 xmlns:xlink="http://www.w3.org/1999/xlink">
 <defs>
  <style type="text/css">
   <![CDATA[
    .str0 {stroke:#2B2A29;stroke-width:20}
    .str1 {stroke:#2B2A29;stroke-width:7.62}
    .fil3 {fill:none;fill-rule:nonzero}
    .fil4 {fill:#FEFEFE}
    .fil1 {fill:#EA5E20}
    .fil2 {fill:#E31E24}
    .fil0 {fill:#22201E}
   ]]>
  </style>
 </defs>
 <g id="Слой_x0020_1">
  <metadata id="CorelCorpID_0Corel-Layer"/>
  <g id="_1002533904">
   <path class="fil0 str0" d="M1263 1669l1266 0 0 -12c0,-590 415,-1175 1043,-1175 318,0 563,119 757,367 21,-2 43,-2 65,0 194,-247 440,-367 757,-367 628,0 1043,585 1043,1175l0 12 4622 0c431,0 780,349 780,778l0 0c0,432 -352,779 -780,779 -1729,0 -3458,0 -5187,0 -25,38 -51,76 -77,113 -228,334 -486,650 -749,956 -253,296 -637,302 -884,-1 -260,-308 -519,-622 -748,-954 -25,-38 -51,-76 -76,-114l0 0 -1832 0c-430,0 -780,-350 -780,-779l0 0c0,-428 350,-778 780,-778z"/>
   <g>
    <path id="Fill_x0020_3" class="fil1" d="M10733 2033c0,-30 13,-56 39,-78 26,-22 58,-32 94,-32 37,0 69,10 95,32 26,22 39,48 39,78 0,32 -13,58 -39,80 -26,22 -58,32 -95,32 -36,0 -68,-10 -94,-32 -26,-22 -39,-48 -39,-80z"/>
    <path id="Fill_x0020_3_0" class="fil1" d="M10869 2260c30,1 55,10 76,29 21,19 32,41 33,68l0 518c-7,60 -43,93 -109,98 -31,0 -58,-10 -80,-28 -23,-19 -34,-42 -34,-70l0 -518c1,-28 13,-51 35,-69 22,-19 48,-28 79,-28z"/>
    <path id="Fill_x0020_3_1" class="fil1" d="M10468 2037c30,1 55,11 76,30 21,18 32,41 33,68l0 740c-7,60 -43,93 -109,98 -31,0 -58,-10 -80,-28 -23,-19 -34,-42 -34,-70l0 -740c1,-28 13,-51 35,-70 22,-18 48,-28 79,-28z"/>
    <path id="Fill_x0020_3_2" class="fil1" d="M10112 2037c29,1 55,11 76,30 20,18 31,41 32,68l0 740c-6,60 -42,93 -108,98 -31,0 -58,-10 -80,-28 -23,-19 -34,-42 -34,-70l0 -740c1,-28 12,-51 34,-70 22,-18 49,-28 80,-28z"/>
    <path id="Fill_x0020_3_3" class="fil1" d="M9307 2973c-51,0 -101,-6 -151,-18 -49,-12 -97,-29 -142,-53 -45,-23 -84,-54 -118,-92 -35,-39 -53,-85 -56,-138l0 -316c0,-27 10,-50 30,-69 20,-18 44,-27 71,-27 59,5 91,37 95,96l0 270c2,31 14,56 35,76 21,21 45,36 70,48 26,12 53,21 81,27 28,6 56,9 85,9 28,0 56,-3 84,-9 28,-6 55,-15 81,-27 26,-12 49,-27 70,-48 22,-20 33,-45 35,-76l0 -270c0,-27 10,-50 30,-69 20,-18 44,-27 71,-27 59,5 91,37 97,96l0 316c-3,53 -22,99 -56,138 -35,38 -75,69 -120,92 -45,24 -92,41 -142,53 -49,12 -100,18 -150,18z"/>
    <path id="Fill_x0020_3_4" class="fil1" d="M8148 2215c51,0 102,6 151,18 49,12 97,30 142,53 45,23 85,54 120,92 34,39 53,85 56,138l0 316c-6,59 -38,91 -97,96 -27,0 -51,-9 -71,-27 -20,-19 -30,-41 -30,-69l0 -270c-2,-30 -14,-56 -35,-76 -21,-20 -44,-37 -70,-48 -26,-12 -53,-21 -81,-27 -28,-6 -56,-9 -85,-9 -28,0 -56,3 -84,9 -28,6 -55,15 -81,27 -26,11 -49,28 -70,48 -21,20 -33,46 -35,76l0 270c-5,59 -36,91 -95,96 -28,0 -51,-9 -71,-27 -20,-19 -30,-41 -30,-69l0 -316c3,-53 21,-99 55,-138 34,-38 74,-69 119,-92 45,-23 92,-41 142,-53 49,-12 100,-18 150,-18z"/>
    <path id="Fill_x0020_3_5" class="fil1" d="M6600 2453c19,-49 52,-93 98,-132 46,-40 105,-60 176,-61l572 0c28,0 52,10 71,31 21,19 31,43 31,72 0,28 -10,52 -30,72 -20,20 -44,30 -72,30l-578 0c-20,0 -36,8 -51,24 -14,16 -25,34 -32,55 -8,22 -12,42 -12,62l0 267c-6,61 -39,94 -100,100 -28,0 -53,-10 -74,-29 -21,-19 -31,-42 -31,-71l0 -266 1 0c0,-53 11,-104 31,-154z"/>
    <path id="Fill_x0020_3_6" class="fil1" d="M6390 2593c0,19 -9,35 -26,49 -15,13 -35,19 -59,19l-499 0c-24,0 -44,-7 -60,-20 -16,-13 -24,-29 -24,-48 0,-17 8,-33 24,-47 16,-12 36,-19 60,-19l499 0c24,0 44,7 60,20 16,13 25,29 25,46z"/>
    <path id="Fill_x0020_3_7" class="fil1" d="M1000 2139c0,-29 10,-52 29,-72 20,-20 43,-30 71,-30l869 0c28,0 52,10 72,29 19,20 28,44 28,73 0,28 -9,52 -28,71 -6,6 -12,11 -18,15l-633 500 579 0c28,0 52,10 72,29 19,20 28,44 28,73 0,28 -10,52 -29,71 -19,20 -43,30 -71,30l-869 0c-28,0 -51,-10 -70,-30 -20,-19 -30,-43 -30,-71 0,-27 8,-50 25,-69l-1 0 6 -4c6,-6 12,-11 19,-15l641 -499 -590 0c-28,0 -51,-10 -70,-30 -20,-19 -30,-43 -30,-71z"/>
    <path id="Fill_x0020_3_8" class="fil2" d="M4024 3128c30,-143 175,-263 284,-330l388 -244c129,-89 265,-302 257,-450 -216,185 -308,265 -558,405 -253,142 -541,335 -371,619z"/>
    <path id="Fill_x0020_3_9" class="fil2" d="M4114 3418c29,-32 49,-85 79,-124 36,-46 59,-62 103,-99 201,-166 619,-306 576,-623l-316 235c-21,13 -36,22 -65,39l-205 122c-63,50 -110,82 -157,147 -74,100 -69,194 -15,303z"/>
    <path id="Fill_x0020_3_10" class="fil2" d="M4209 3641c240,-259 325,-78 399,-490 -105,21 -231,118 -289,178 -74,77 -122,187 -110,312z"/>
    <g>
     <path id="Fill_x0020_3_11" class="fil3 str1" d="M4338 3864c16,8 32,7 47,0 51,-54 42,-179 29,-255 -40,21 -94,46 -108,98 -16,55 -9,120 32,157zm-620 -2357c-4,151 6,303 25,457 68,-30 150,-65 193,-79 111,-34 83,-133 173,-171 93,-59 353,-193 451,-151 -43,19 -90,41 -139,65 -115,55 -213,92 -271,130 -37,25 -28,50 -25,57 3,8 13,29 52,15 58,-21 163,-82 276,-137 50,-25 98,-49 140,-72 -27,106 -376,280 -449,274 -130,-10 -122,-16 -213,42 -61,39 -117,68 -177,102 11,76 24,152 39,228 50,-25 75,-49 131,-82 224,-137 341,-168 659,-379 73,-49 162,-126 237,-157 -41,264 -364,525 -545,622 -23,-90 -75,-102 -170,-56l-286 183c-1,0 65,334 76,380 25,-106 112,-180 206,-240 245,-157 517,-278 710,-505 130,-152 244,-357 179,-529 -72,-138 -917,-269 -1272,3zm584 -214l118 6c-4,-136 16,-184 -33,-195 -31,-6 -79,-8 -83,33 -6,47 -1,96 -2,156z"/>
     <path id="1" class="fil4" d="M4338 3864c16,8 32,7 47,0 51,-54 42,-179 29,-255 -40,21 -94,46 -108,98 -16,55 -9,120 32,157zm-620 -2357c-4,151 6,303 25,457 68,-30 150,-65 193,-79 111,-34 83,-133 173,-171 93,-59 353,-193 451,-151 -43,19 -90,41 -139,65 -115,55 -213,92 -271,130 -37,25 -28,50 -25,57 3,8 13,29 52,15 58,-21 163,-82 276,-137 50,-25 98,-49 140,-72 -27,106 -376,280 -449,274 -130,-10 -122,-16 -213,42 -61,39 -117,68 -177,102 11,76 24,152 39,228 50,-25 75,-49 131,-82 224,-137 341,-168 659,-379 73,-49 162,-126 237,-157 -41,264 -364,525 -545,622 -23,-90 -75,-102 -170,-56l-286 183c-1,0 65,334 76,380 25,-106 112,-180 206,-240 245,-157 517,-278 710,-505 130,-152 244,-357 179,-529 -72,-138 -917,-269 -1272,3zm584 -214l118 6c-4,-136 16,-184 -33,-195 -31,-6 -79,-8 -83,33 -6,47 -1,96 -2,156z"/>
    </g>
    <path id="Fill_x0020_3_12" class="fil1" d="M5740 2928c-89,-3 -156,-23 -201,-61 -46,-38 -79,-80 -99,-128 -20,-48 -30,-96 -30,-145 0,-51 10,-100 29,-148 20,-47 53,-90 99,-128 46,-38 104,-57 175,-58l575 0c29,0 52,9 71,28 21,18 31,39 31,65 0,26 -10,49 -30,67 -19,18 -43,27 -72,27l-566 0c-22,0 -42,7 -59,22 -16,15 -28,34 -36,57 -7,24 -11,47 -11,70 0,24 4,48 11,72 8,23 20,42 36,56 17,15 37,22 59,23l566 0c29,0 53,9 72,27 20,17 30,39 30,63 0,26 -10,47 -31,65 -19,17 -42,26 -71,26l-548 0z"/>
    <path id="Fill_x0020_3_13" class="fil1" d="M3068 2873l0 -368c0,-26 -14,-39 -40,-40l-529 0c-19,1 -36,9 -50,25 -14,16 -24,34 -31,55 -6,21 -10,42 -10,64 0,20 4,41 10,62 7,20 17,39 31,55 14,15 31,23 50,23l387 0c28,0 52,10 72,30 20,20 29,44 29,73 0,28 -10,52 -30,72 -19,20 -43,30 -71,30l-381 0c-71,-1 -129,-21 -175,-60 -46,-40 -78,-84 -98,-133 -20,-50 -29,-101 -29,-154 0,-51 10,-101 30,-150 20,-50 53,-94 98,-134 46,-39 113,-60 201,-63l635 0c29,0 53,9 73,28 20,19 31,43 32,71l0 514c0,29 -11,52 -32,71 -20,19 -44,29 -73,29 -60,-6 -93,-39 -99,-100z"/>
    <path id="Fill_x0020_3_14" class="fil1" d="M2989 1657c0,-331 216,-716 583,-716 86,0 170,14 245,56 44,25 84,60 121,101 1,-2 3,-3 4,-5 47,-51 109,-80 178,-80 6,0 11,1 16,1 -142,-186 -313,-278 -564,-278 -435,0 -789,412 -789,921 0,10 0,20 0,30 3,139 23,279 59,419l213 0c-39,-138 -63,-278 -66,-419 0,-10 0,-20 0,-30z"/>
    <path id="Fill_x0020_3_15" class="fil1" d="M5092 3196c-46,63 -92,126 -139,188 -153,201 -317,396 -480,588 -81,118 -183,47 -218,8 -194,-229 -387,-462 -564,-703 -20,-27 -40,-54 -59,-81 -63,-88 -124,-178 -183,-268 -8,-13 -16,-25 -24,-38 -4,65 -32,124 -81,169 -12,10 -24,20 -37,28 24,36 49,72 74,109 214,312 469,624 734,936 136,168 332,185 495,-2 265,-312 519,-623 733,-935 43,-62 85,-125 125,-188 -10,-7 -19,-14 -28,-21 -47,-39 -87,-84 -117,-136 -16,26 -32,52 -49,78 -58,90 -119,179 -182,268z"/>
    <path id="Fill_x0020_3_16" class="fil1" d="M5151 736c-250,0 -421,92 -563,278 5,0 11,-1 17,-1 70,0 132,30 179,82 1,0 1,1 2,2 37,-41 77,-75 120,-100 76,-42 160,-56 245,-56 368,0 584,385 584,716 0,10 0,20 -1,30 -3,142 -27,283 -66,421 14,-1 28,-2 43,-2l2 0 168 0c36,-140 57,-279 59,-419 0,-10 0,-20 0,-30 0,-509 -353,-921 -789,-921z"/>
   </g>
  </g>
 </g>
</svg>
